<svg width="39" height="27" viewBox="0 0 39 27" xmlns="http://www.w3.org/2000/svg"><path d="M15.729 18.536v-1.929H18.3v-5.786h-.04c-.321.503-.623.724-1.105 1.146l-1.547-1.608 2.973-2.752h2.29v9h2.572v1.929h-7.714zm10.286-5.143c0-3.656-2.21-8.357-6.43-8.357-4.218 0-6.428 4.7-6.428 8.357 0 3.656 2.21 8.357 6.429 8.357s6.429-4.7 6.429-8.357zM36.3 18.536a5.153 5.153 0 00-5.143 5.143H8.014a5.153 5.153 0 00-5.142-5.143V8.25a5.153 5.153 0 005.142-5.143h23.143A5.153 5.153 0 0036.3 8.25v10.286zM38.872 1.82c0-.703-.583-1.285-1.286-1.285h-36A1.296 1.296 0 00.3 1.82v23.143c0 .703.583 1.286 1.286 1.286h36c.703 0 1.286-.583 1.286-1.286V1.821z" fill="#fff"/></svg> 33.4676 8.24999 36.3002 8.24999V18.5357ZM38.8716 1.82142C38.8716 1.11829 38.289 0.535706 37.5859 0.535706H1.58589C0.88276 0.535706 0.300171 1.11829 0.300171 1.82142V24.9643C0.300171 25.6674 0.88276 26.25 1.58589 26.25H37.5859C38.289 26.25 38.8716 25.6674 38.8716 24.9643V1.82142Z" fill="white"/>
</svg>
