<svg width="40" height="43" viewBox="0 0 40 43" xmlns="http://www.w3.org/2000/svg"><path d="M15.993 23.372v-1.285c0-.362.281-.643.643-.643H30.78c.361 0 .643.281.643.643v1.285a.635.635 0 01-.643.643H16.636a.635.635 0 01-.643-.643zm.643 3.215H30.78c.361 0 .643.281.643.643v1.285a.635.635 0 01-.643.643H16.636a.635.635 0 01-.643-.643V27.23c0-.362.281-.643.643-.643zm0 5.143H30.78c.361 0 .643.28.643.642v1.286a.635.635 0 01-.643.643H16.636a.635.635 0 01-.643-.643v-1.286c0-.361.281-.642.643-.642z" fill="#fff"/><path fill-rule="evenodd" clip-rule="evenodd" d="M8.279 15.315a7.415 7.415 0 117.173-9.3h12.755c1.065 0 2.552.623 3.295 1.366l6.268 6.268c.743.744 1.366 2.23 1.366 3.295v23.143a1.93 1.93 0 01-1.928 1.928h-27a1.93 1.93 0 01-1.93-1.928V15.315zm2.571-.458a7.421 7.421 0 004.813-6.27h10.616v8.357a1.93 1.93 0 001.928 1.928h8.358v20.572H10.85V14.857zm18.824-5.668c-.14-.14-.482-.321-.824-.442v7.554h7.554c-.12-.341-.301-.683-.442-.824L29.674 9.19zM9.279 8.9h4v-2h-4v-4h-2v4h-4v2h4v4h2v-4z" fill="#fff"/></svg>18373 0.484802 8.27892 0.484802C11.7229 0.484802 14.6185 2.83277 15.4523 6.01529H28.2075C29.2722 6.01529 30.7588 6.63806 31.5021 7.38136L37.77 13.6492C38.5133 14.3925 39.1361 15.8791 39.1361 16.9439V40.0867C39.1361 41.1515 38.2722 42.0153 37.2075 42.0153H10.2075C9.14276 42.0153 8.27892 41.1515 8.27892 40.0867L8.27892 15.3148ZM10.8504 14.8568C13.4729 13.8871 15.397 11.477 15.6625 8.58672H26.2789V16.9439C26.2789 18.0086 27.1428 18.8724 28.2075 18.8724H36.5646V39.4439H10.8504V14.8568ZM29.674 9.1894C29.5334 9.04877 29.1919 8.86797 28.8504 8.74743V16.301H36.4039C36.2834 15.9595 36.1026 15.618 35.962 15.4773L29.674 9.1894ZM9.27892 8.89984H13.2789V6.89984H9.27892V2.89984H7.27892V6.89984H3.27892V8.89984H7.27892V12.8998H9.27892V8.89984Z" fill="white"/>
</svg>
