<svg width="15" height="18" viewBox="0 0 15 18" fill="none" xmlns="http://www.w3.org/2000/svg"><path fill-rule="evenodd" clip-rule="evenodd" d="M.78 8.93c0-.983.083-1.608 2.138-3.13C4.62 4.542 10.073.238 10.073.238v7.185h4.147v10.34H2.075A1.294 1.294 0 01.78 16.479V8.93z" fill="#3E9CDC"/><path fill-rule="evenodd" clip-rule="evenodd" d="M10.073 7.422v4.163l-7.62 5.148 9.634-3.108V7.422h-2.014z" fill="#000" fill-opacity=".2"/><path fill-rule="evenodd" clip-rule="evenodd" d="M6.59 7.207c.446-.527 1.097-.713 1.454-.415.358.297.286.965-.16 1.492-.445.526-1.096.712-1.453.415-.358-.298-.286-.966.16-1.492z" fill="#231F20"/></svg>436 8.04435 6.79173C8.40174 7.08915 8.3303 7.75719 7.8846 8.2838C7.43925 8.81035 6.78811 8.99602 6.43072 8.69859C6.07333 8.40123 6.14497 7.73333 6.5904 7.20678V7.20685Z" fill="#231F20"/>
</svg>
