<svg width="19" height="18" viewBox="0 0 19 18" xmlns="http://www.w3.org/2000/svg"><path d="M9.34 0a9.12 9.12 0 013.957.901c.189.085.379.187.567.29l-.826.73L11.801.647l-2.133 1.87-1.256-1.343L4.49 4.66l2.511 2.737-.98.85 2.477 2.738-.98.85 3.543 3.893 2.098-1.904 1.824 2.04c-.362.273-.758.546-1.187.783a9.07 9.07 0 01-4.438 1.156c-4.971 0-9.012-3.995-9.012-8.909C.328 4.013 4.37 0 9.34 0zM7.69 8.349l2.15-1.905 1.926 2.126-2.15 1.904-1.927-2.125zm1.53 3.672l2.133-1.92 1.944 2.124-2.15 1.905-1.927-2.11zM6.16 4.727l2.149-1.904 1.926 2.125-2.15 1.904L6.16 4.727zm3.937-1.02l1.6-1.429 1.445 1.582-1.6 1.445-1.445-1.598zm2.856 6.546l1.6-1.428 1.444 1.597-1.6 1.43-1.444-1.6zm1.41 3.214l1.6-1.429 1.444 1.582-1.6 1.444-1.444-1.597zm.654-7.346l1.066-.952.963 1.054-1.066.952-.963-1.054zM13.64 2.975l1.066-.968.964 1.07-1.067.953-.963-1.055zm2.734 6.292l1.067-.952.98 1.054-1.083.952-.963-1.054zm-4.798-2.364l1.6-1.428 1.444 1.581-1.599 1.429-1.445-1.582z"/></svg>529 10.2528ZM14.3631 13.4668L15.9629 12.0382L17.4068 13.6195L15.8076 15.0644L14.3631 13.4668ZM15.0168 6.12107L16.0831 5.16879L17.0459 6.22339L15.9799 7.17531L15.0168 6.12107ZM13.6408 2.97548L14.7071 2.00651L15.6707 3.07753L14.6036 4.02972L13.6408 2.97548ZM16.3755 9.26693L17.4417 8.31474L18.422 9.36899L17.3389 10.3209L16.3755 9.26693ZM11.5768 6.90341L13.1766 5.47513L14.6211 7.05614L13.022 8.48469L11.5768 6.90341Z" />
</svg>
