<svg width="16" height="13" viewBox="0 0 16 13" xmlns="http://www.w3.org/2000/svg"><path d="M14.75 10.85a.275.275 0 01-.268.267H2.162a.275.275 0 01-.269-.268V4.421c.176.2.369.385.578.552a112.81 112.81 0 013.566 2.83c.627.527 1.406 1.171 2.276 1.171h.017c.87 0 1.65-.644 2.277-1.172a114.812 114.812 0 013.566-2.829c.209-.167.402-.352.577-.552v6.428zm0-8.798c0 .711-.686 1.64-1.23 2.067a517.902 517.902 0 00-3.357 2.654c-.443.36-1.247 1.13-1.833 1.13h-.017c-.586 0-1.39-.77-1.833-1.13a518.446 518.446 0 00-3.356-2.654c-.754-.594-1.23-1.423-1.23-2.377 0-.142.125-.268.267-.268h12.321c.319 0 .268.368.268.578zm1.072-.31c0-.737-.603-1.34-1.34-1.34H2.162c-.738 0-1.34.603-1.34 1.34v9.107c0 .737.602 1.34 1.34 1.34h12.32c.737 0 1.34-.603 1.34-1.34V1.742z"/></svg>6698 5.88541 4.24533 4.99813 3.12367 4.11923C2.37033 3.52492 1.89321 2.69624 1.89321 1.742C1.89321 1.5997 2.01876 1.47414 2.16106 1.47414H14.4825C14.8006 1.47414 14.7503 1.84244 14.7503 2.05171ZM15.8218 1.742C15.8218 1.00539 15.2191 0.40271 14.4825 0.40271H2.16106C1.42446 0.40271 0.821777 1.00539 0.821777 1.742V10.8491C0.821777 11.5857 1.42446 12.1884 2.16106 12.1884H14.4825C15.2191 12.1884 15.8218 11.5857 15.8218 10.8491V1.742Z" />
</svg>
