<svg width="35" height="35" viewBox="0 0 35 35" xmlns="http://www.w3.org/2000/svg"><path d="M23.929 14.929c0 4.962-4.038 9-9 9s-9-4.038-9-9 4.038-9 9-9 9 4.038 9 9zm10.285 16.714c0-.683-.281-1.346-.743-1.808l-6.89-6.89a14.11 14.11 0 002.49-8.016C29.071 7.114 22.743.786 14.93.786 7.114.786.786 7.114.786 14.929c0 7.814 6.328 14.142 14.143 14.142a14.11 14.11 0 008.015-2.49l6.89 6.87a2.522 2.522 0 001.809.763 2.59 2.59 0 002.571-2.571z" fill="#fff"/></svg>785706 14.9286 0.785706C7.11383 0.785706 0.785706 7.11383 0.785706 14.9286C0.785706 22.7433 7.11383 29.0714 14.9286 29.0714C17.7812 29.0714 20.5937 28.2076 22.9442 26.5803L29.8348 33.4509C30.2969 33.933 30.9598 34.2143 31.6429 34.2143C33.0491 34.2143 34.2143 33.0491 34.2143 31.6429Z" fill="white"/>
</svg>
