<?xml version="1.0" encoding="utf-8"?><svg width="37" height="29" xmlns="http://www.w3.org/2000/svg" viewBox="0 0 37 29"><path d="M33.795 25.107a.661.661 0 01-.643.643H3.581a.661.661 0 01-.643-.643V9.68c.422.482.884.924 1.386 1.325 2.873 2.21 5.766 4.46 8.558 6.79 1.507 1.266 3.375 2.813 5.464 2.813h.04c2.09 0 3.958-1.547 5.465-2.812 2.792-2.33 5.685-4.58 8.558-6.79.502-.402.964-.844 1.386-1.326v15.428zm0-21.114c0 1.708-1.647 3.938-2.953 4.962-2.692 2.11-5.384 4.24-8.056 6.369-1.065.864-2.993 2.712-4.4 2.712h-.04c-1.406 0-3.334-1.849-4.4-2.712-2.67-2.13-5.363-4.26-8.055-6.369C4.083 7.53 2.938 5.54 2.938 3.25c0-.342.301-.643.643-.643h29.571c.764 0 .643.884.643 1.386zm2.572-.743A3.224 3.224 0 0033.152.036H3.581A3.224 3.224 0 00.367 3.25v21.857a3.224 3.224 0 003.214 3.214h29.571a3.224 3.224 0 003.215-3.214V3.25z" fill="#fff"/></svg>